<svg id="Layer_1" data-name="Layer 1" xmlns="http://www.w3.org/2000/svg" viewBox="0 0 1980 421.93"><defs><style>.cls-1{fill:#6340ff;}</style></defs><title>zigzag-background</title><polygon class="cls-1" points="1974.43 421.78 1951.16 407.93 1929.31 421.93 1907.47 407.93 1885.63 421.93 1863.79 407.93 1841.95 421.93 1820.11 407.93 1798.27 421.93 1776.42 407.93 1754.58 421.93 1732.74 407.93 1710.9 421.93 1689.06 407.93 1667.21 421.93 1645.37 407.93 1623.53 421.93 1601.69 407.93 1579.85 421.93 1558 407.93 1536.16 421.93 1514.32 407.93 1492.48 421.93 1470.63 407.93 1448.79 421.93 1426.95 407.93 1405.1 421.93 1383.26 407.93 1361.42 421.93 1339.57 407.93 1317.73 421.93 1295.89 407.93 1274.05 421.93 1252.2 407.93 1230.36 421.93 1208.51 407.93 1186.67 421.93 1164.83 407.93 1142.98 421.93 1121.14 407.93 1099.29 421.93 1077.45 407.93 1055.61 421.93 1033.76 407.93 1011.92 421.93 990.07 407.93 968.23 421.93 946.38 407.93 924.54 421.93 902.69 407.93 880.85 421.93 859 407.93 837.16 421.93 815.31 407.93 793.47 421.93 771.63 407.93 749.79 421.93 727.95 407.93 706.11 421.93 684.26 407.93 662.42 421.93 640.57 407.93 618.73 421.93 596.88 407.93 575.04 421.93 553.2 407.93 531.35 421.93 509.51 407.93 487.66 421.93 465.81 407.93 443.97 421.93 422.13 407.93 400.28 421.93 378.43 407.93 356.59 421.93 334.74 407.93 312.89 421.93 291.04 407.93 269.19 421.93 247.35 407.93 225.5 421.93 203.65 407.93 181.81 421.93 159.96 407.93 138.11 421.93 116.26 407.93 94.41 421.93 72.56 407.93 50.71 421.93 28.86 407.93 5.58 421.78 14 410.39 0 405.86 14 401.33 0 396.8 14 392.27 0 387.74 14 383.21 0 378.68 14 374.15 0 369.62 14 365.09 0 360.56 14 356.03 0 351.5 14 346.97 0 342.44 14 337.91 0 333.38 14 328.85 0 324.31 14 319.78 0 315.25 14 310.72 0 306.19 14 301.66 0 297.13 14 292.6 0 288.06 14 283.53 0 279 14 274.47 0 269.94 14 265.41 0 260.88 14 256.34 0 251.81 14 247.28 0 242.75 14 238.22 0 233.68 14 229.15 0 224.62 14 220.09 0 215.55 14 211.02 0 206.49 14 201.96 0 197.43 14 192.9 0 188.37 14 183.84 0 179.31 14 174.78 0 170.25 14 165.72 0 161.19 14 156.65 0 152.12 14 147.59 0 143.06 14 138.53 0 134 14 129.46 0 124.93 14 120.4 0 115.86 14 111.33 0 106.8 14 102.26 0 97.73 14 93.19 0 88.66 14 84.13 0 79.59 14 75.06 0 70.52 14 65.98 0 61.45 14 56.92 0 52.38 14 47.85 0 43.31 14 38.78 0 34.24 14 29.7 0 25.16 14 20.63 0 16.09 14 11.54 5.57 0.15 28.84 14 50.69 0 72.53 14 94.37 0 116.21 14 138.05 0 159.89 14 181.74 0 203.57 14 225.42 0 247.26 14 269.1 0 290.94 14 312.79 0 334.63 14 356.47 0 378.31 14 400.15 0 422 14 443.84 0 465.68 14 487.52 0 509.37 14 531.21 0 553.05 14 574.9 0 596.74 14 618.58 0 640.43 14 662.27 0 684.11 14 705.96 0 727.8 14 749.64 0 771.49 14 793.33 0 815.17 14 837.02 0 858.86 14 880.71 0 902.55 14 924.39 0 946.24 14 968.08 0 989.93 14 1011.77 0 1033.62 14 1055.46 0 1077.31 14 1099.15 0 1121 14 1142.84 0 1164.69 14 1186.53 0 1208.37 14 1230.21 0 1252.05 14 1273.89 0 1295.74 14 1317.58 0 1339.43 14 1361.27 0 1383.12 14 1404.96 0 1426.8 14 1448.65 0 1470.49 14 1492.34 0 1514.18 14 1536.03 0 1557.88 14 1579.72 0 1601.57 14 1623.41 0 1645.26 14 1667.11 0 1688.96 14 1710.81 0 1732.65 14 1754.5 0 1776.35 14 1798.19 0 1820.04 14 1841.89 0 1863.74 14 1885.59 0 1907.44 14 1929.29 0 1951.14 14 1974.42 0.15 1966 11.53 1980 16.06 1966 20.59 1980 25.13 1966 29.65 1980 34.18 1966 38.71 1980 43.24 1966 47.77 1980 52.3 1966 56.83 1980 61.37 1966 65.9 1980 70.43 1966 74.96 1980 79.49 1966 84.02 1980 88.55 1966 93.08 1980 97.61 1966 102.14 1980 106.67 1966 111.2 1980 115.73 1966 120.26 1980 124.8 1966 129.33 1980 133.86 1966 138.39 1980 142.92 1966 147.45 1980 151.99 1966 156.52 1980 161.05 1966 165.58 1980 170.11 1966 174.64 1980 179.18 1966 183.71 1980 188.24 1966 192.77 1980 197.31 1966 201.84 1980 206.37 1966 210.9 1980 215.44 1966 219.97 1980 224.5 1966 229.03 1980 233.56 1966 238.09 1980 242.62 1966 247.15 1980 251.68 1966 256.21 1980 260.74 1966 265.27 1980 269.8 1966 274.33 1980 278.86 1966 283.4 1980 287.93 1966 292.46 1980 296.99 1966 301.53 1980 306.06 1966 310.59 1980 315.13 1966 319.66 1980 324.2 1966 328.73 1980 333.26 1966 337.8 1980 342.33 1966 346.87 1980 351.4 1966 355.94 1980 360.48 1966 365.01 1980 369.54 1966 374.08 1980 378.61 1966 383.15 1980 387.69 1966 392.22 1980 396.76 1966 401.3 1980 405.84 1966.03 411 1974.43 421.78"/></svg>